<?xml version="1.0" encoding="UTF-8"?>
<!DOCTYPE svg PUBLIC "-//W3C//DTD SVG 1.1//EN" "http://www.w3.org/Graphics/SVG/1.1/DTD/svg11.dtd">
<!-- Creator: CorelDRAW -->
<svg xmlns="http://www.w3.org/2000/svg" xml:space="preserve" width="8.4666mm" height="8.4666mm" version="1.1" style="shape-rendering:geometricPrecision; text-rendering:geometricPrecision; image-rendering:optimizeQuality; fill-rule:evenodd; clip-rule:evenodd"
viewBox="0 0 846.66 846.66"
 xmlns:xlink="http://www.w3.org/1999/xlink"
 xmlns:xodm="http://www.corel.com/coreldraw/odm/2003">
 <defs>
  <style type="text/css">
   <![CDATA[
    .fil0 {fill:#FEFEFE}
   ]]>
  </style>
 </defs>
 <g id="Camada_x0020_1">
  <metadata id="CorelCorpID_0Corel-Layer"/>
  <path id="angleUp.svg" class="fil0" d="M160.86 494.86c0,30.12 25.83,55.47 55.46,55.47 28.08,0 47.4,-25 62.4,-40 20.21,-20.2 145.01,-147.31 155.19,-154.12 10.14,6.78 134.15,133.08 154.12,153.06 21.82,21.82 33.24,41.06 67.73,41.06 12.79,0 28.81,-8.88 35.58,-15.61 2.44,-2.43 9.13,-11.64 10.74,-14.87 4.81,-9.67 4.88,-18.06 4.88,-29.25 0,-25.78 -35.7,-53.84 -58.13,-76.27l-169.59 -169.59c-53.64,-53.73 -85.75,-4.91 -124.79,34.14l-136.53 136.52c-27.36,27.37 -57.06,48.21 -57.06,79.46z"/>
 </g>
</svg>
