<svg width="2053" height="592" viewBox="0 0 2053 592" fill="none" xmlns="http://www.w3.org/2000/svg">
<path fill-rule="evenodd" clip-rule="evenodd" d="M1019.18 523.456H891.566L875.701 466.097C873.127 456.954 870.58 447.782 868.027 438.588L868.021 438.568C865.298 428.761 862.568 418.93 859.792 409.085C859.297 407.33 858.889 405.81 858.464 404.225L858.46 404.212C858.242 403.398 858.02 402.568 857.778 401.679C857.525 400.749 857.24 399.767 856.95 398.772C856.54 397.358 856.122 395.919 855.777 394.565L839.879 337.542C839.025 334.64 838.221 331.709 837.409 328.751L837.407 328.745C836.912 326.938 836.413 325.121 835.898 323.292C834.843 319.544 833.809 315.772 832.771 311.984L832.767 311.969C831.203 306.262 829.63 300.52 827.959 294.771C825.238 285.411 822.639 275.88 820.047 266.373L820.047 266.372L820.046 266.372C817.397 256.656 814.755 246.965 811.996 237.508L802.057 201.872C801.442 199.411 800.777 197.121 800.076 194.738C797.77 186.897 795.567 178.83 793.357 170.736L793.357 170.733L793.356 170.732L793.356 170.73C791.623 164.382 789.885 158.016 788.089 151.73L764.258 66.1787H891.871C892.362 67.2029 892.962 69.9977 893.434 72.1955C893.629 73.1016 893.802 73.9063 893.936 74.4434L899.892 98.8716C900.6 101.699 901.266 104.44 901.932 107.184L901.934 107.192C902.576 109.837 903.219 112.486 903.902 115.218L911.802 147.729C918.897 176.087 925.76 204.616 932.622 233.139L932.624 233.145L932.626 233.152L932.629 233.165L932.631 233.176C939.488 261.677 946.344 290.172 953.428 318.487L955.373 326.568L963.518 294C964.822 288.753 966.077 283.516 967.327 278.3L967.333 278.277L967.333 278.275L967.335 278.269C968.683 272.644 970.025 267.044 971.415 261.486L987.213 196.462C988.417 191.35 989.689 186.264 990.957 181.192L990.958 181.189L990.959 181.186L991.226 180.118L1003.14 131.261C1004.44 126.046 1005.7 120.793 1006.96 115.519L1006.96 115.501C1008.3 109.934 1009.63 104.344 1011.04 98.7506L1011.1 98.508C1011.97 95.0306 1018.84 67.6825 1018.88 66.1787H1146.49C1146.45 68.0628 1139.03 93.6834 1138.62 95.0784C1136.58 102.033 1134.63 109.214 1132.68 116.403L1132.68 116.41L1132.68 116.414C1130.72 123.623 1128.76 130.841 1126.7 137.848L1106.79 209.394C1103.57 220.512 1100.47 231.865 1097.38 243.208L1097.37 243.215L1097.37 243.219C1093.93 255.822 1090.5 268.413 1086.9 280.652L1066.99 352.199C1065.68 356.719 1064.44 361.237 1063.21 365.737C1061.84 370.749 1060.47 375.74 1059.02 380.687C1058.31 383.084 1057.67 385.492 1057.03 387.888C1056.39 390.267 1055.76 392.634 1055.07 394.969C1050.87 409.261 1046.81 424.055 1042.76 438.813L1042.76 438.83L1042.75 438.837C1040.21 448.104 1037.67 457.356 1035.11 466.463C1033.96 470.539 1032.87 474.541 1031.78 478.528L1031.77 478.544L1031.77 478.554L1031.76 478.573L1031.76 478.582C1030.28 484.031 1028.8 489.453 1027.19 495.003C1026.3 498.068 1025.46 501.107 1024.62 504.108C1024.15 505.832 1023.67 507.544 1023.19 509.242L1019.18 523.456ZM128.323 523.456H0.710938V66.4824H191.218C192.031 66.4824 192.105 66.9234 192.286 68.0041V68.0043C192.359 68.4416 192.45 68.9836 192.615 69.6436L197.053 87.6901C202.122 107.957 207.013 128.289 211.905 148.623L211.906 148.627C216.761 168.804 221.616 188.984 226.645 209.105L233.627 237.672C235.55 246.509 254.635 324.812 255.625 327.184L260.068 344.921C260.387 346.198 260.66 347.371 260.935 348.547L260.935 348.547L260.935 348.55L260.936 348.551C261.199 349.678 261.462 350.808 261.767 352.033C263.971 360.905 266.137 369.836 268.307 378.788L268.309 378.794L268.31 378.8C270.761 388.907 273.219 399.042 275.746 409.152L293.187 480.736C294.882 488.215 296.796 495.807 298.718 503.431L298.718 503.432L298.72 503.441C300.4 510.105 302.087 516.795 303.639 523.456H191.522C190.235 517.933 188.954 512.54 187.572 507.049L175.784 458.677C169.815 435.025 164.043 411.074 158.279 387.155L158.279 387.154L158.278 387.151L158.278 387.148C153.608 367.769 148.943 348.41 144.181 329.245L129.355 268.416C129.15 267.6 129.097 267.342 128.959 266.655L128.913 266.427L128.323 523.456ZM269.16 279.334L269.16 279.334C269.42 280.282 269.66 281.154 269.785 281.729C271.51 289.66 273.702 298.218 275.889 306.757L275.889 306.758L275.889 306.759C278.065 315.257 280.236 323.736 281.938 331.558C282.603 334.612 283.32 337.509 284.035 340.395L284.035 340.397L284.036 340.4C284.478 342.184 284.919 343.964 285.345 345.774C286.488 350.625 287.642 355.25 288.873 360.173C290.079 364.998 291.224 369.73 292.369 374.462C293.513 379.188 294.657 383.915 295.861 388.734L323.692 503.099C324.338 502.626 324.339 502.623 324.475 501.827L324.475 501.827C324.546 501.412 324.653 500.782 324.908 499.757C325.122 498.896 325.335 498.048 325.548 497.194L325.82 496.111C326.131 494.868 326.431 493.591 326.731 492.314L326.732 492.308C327.032 491.032 327.332 489.757 327.643 488.515C328.257 486.057 328.861 483.564 329.466 481.071C330.07 478.578 330.674 476.085 331.288 473.627L351.22 391.772C351.423 390.96 351.632 390.153 351.84 389.355L351.84 389.353C352.296 387.594 352.742 385.874 353.09 384.223C354.459 377.714 357.052 367.431 359.056 359.488C359.522 357.64 359.956 355.918 360.335 354.4C361.542 349.574 362.689 344.833 363.836 340.098L363.837 340.094C365.078 334.964 366.319 329.841 367.629 324.626C368.938 319.421 370.146 314.347 371.354 309.271L371.354 309.269C372.494 304.48 373.634 299.69 374.859 294.787C375.493 292.254 376.086 289.803 376.68 287.351L376.681 287.35C377.275 284.896 377.87 282.44 378.505 279.899C378.656 279.296 378.917 278.174 379.237 276.802L379.237 276.801L379.237 276.8C380.243 272.48 381.823 265.693 382.334 264.889L382.637 523.456H509.946V66.4824H318.831L309.349 105.311C308.95 107.003 308.508 108.751 308.064 110.505L308.063 110.509C307.375 113.223 306.684 115.953 306.146 118.514C305.188 123.067 304.03 127.518 302.872 131.969L302.871 131.97C301.801 136.083 300.731 140.197 299.818 144.394C298.844 148.868 297.747 153.178 296.65 157.487C295.553 161.794 294.457 166.1 293.484 170.571L269.67 267.989C269.635 268.128 269.579 268.351 269.507 268.632L269.499 268.662C269.061 270.382 268.09 274.195 268.09 274.612C268.09 275.443 268.663 277.527 269.16 279.334ZM644.166 402.148C658.734 387.591 662.473 359.581 662.473 337.203V66.1787H739.04C739.14 67.3857 739.683 69.1258 740.155 70.6386C740.331 71.1997 740.496 71.7295 740.625 72.1893L751.864 112.3C752.465 114.51 753.124 116.814 753.786 119.126C754.243 120.726 754.702 122.329 755.143 123.908C756.205 127.705 757.246 131.39 758.355 135.281L768.077 169.919C768.539 171.539 768.975 173.109 769.408 174.664C770.021 176.872 770.627 179.049 771.283 181.298C772.405 185.146 773.465 189.002 774.529 192.878C775.57 196.67 776.617 200.48 777.733 204.32C777.844 204.7 790.389 247.951 790.389 250.305L790.002 355.958C789.74 357.868 789.651 359.985 789.559 362.137C789.462 364.448 789.362 366.8 789.045 368.978L787.672 381.581C782.847 415.613 774.082 446.439 753.192 473.194L746.812 480.791C745.625 482.327 743.705 484.154 741.954 485.821C741.207 486.532 740.491 487.214 739.876 487.831C734.06 493.666 722.504 502.163 715.739 505.927C694.552 517.716 676.945 523.059 652.539 526.588C650.787 526.841 648.214 527.202 646.341 527.379L633.48 528.494C632.563 528.632 631.787 528.623 630.932 528.614C630.619 528.61 630.295 528.606 629.95 528.61C629.077 528.619 628.659 528.693 628.226 528.77C627.88 528.831 627.526 528.894 626.925 528.927C625.444 529.007 623.782 528.979 622.172 528.952C621.406 528.939 620.652 528.926 619.935 528.925C618.562 528.924 617.49 529.007 616.442 529.088C615.437 529.166 614.453 529.242 613.248 529.24C612.124 529.239 611.153 529.166 610.154 529.09C609.07 529.009 607.952 528.925 606.566 528.926C605.203 528.926 603.841 528.926 602.478 528.926C601.511 528.926 600.545 528.925 599.578 528.926L559.949 526.625C558.542 526.425 557.076 526.283 555.703 526.15C554.984 526.081 554.29 526.013 553.644 525.942L535.164 523.456V405.567L540.368 407.351C541.051 407.578 541.695 407.796 542.333 408.011C543.393 408.368 544.435 408.72 545.605 409.102C555.711 412.402 568.767 415.475 579.309 417.025C583.655 417.663 587.357 417.993 591.964 418.346C592.266 418.369 592.585 418.394 592.919 418.42C596.6 418.709 602.052 419.136 605.13 418.715C606.24 418.563 607.334 418.517 608.428 418.471C609.493 418.426 610.558 418.381 611.642 418.239C622.338 416.836 632.711 412.672 640.67 405.64C641.485 404.921 642.244 404.131 643.009 403.336C643.391 402.939 643.774 402.54 644.166 402.148Z" fill="url(#paint0_linear_711_16)"/>
<path d="M1777.67 0.801758L1502.76 98.8348L1544.69 462.328L1777.67 591.367L2010.64 462.328L2052.57 98.8348L1777.67 0.801758Z" fill="#7052BE"/>
<path d="M1777.66 0.801758V66.3539V66.0591V365.18V591.367L2010.64 462.328L2052.57 98.8348L1777.66 0.801758Z" fill="#604999"/>
<path d="M1777.66 66.0596L1605.81 451.403H1669.89L1704.43 365.181H1850.3L1884.85 451.403H1948.93L1777.66 66.0596ZM1827.86 312.03H1727.47L1777.66 191.259L1827.86 312.03Z" fill="white"/>
<path fill-rule="evenodd" clip-rule="evenodd" d="M1287.37 386.433V338.641H1239.58V307.43H1287.37V259.639H1318.58V307.43H1366.37V338.641H1318.58V386.433H1287.37Z" fill="url(#paint1_linear_711_16)" stroke="#6E5CA4" stroke-width="0.639874" stroke-miterlimit="22.9256"/>
<defs>
<linearGradient id="paint0_linear_711_16" x1="188" y1="298" x2="1086" y2="298" gradientUnits="userSpaceOnUse">
<stop stop-color="#7052BD"/>
<stop offset="1" stop-color="#604999"/>
</linearGradient>
<linearGradient id="paint1_linear_711_16" x1="1215.11" y1="385.852" x2="1364.98" y2="289.115" gradientUnits="userSpaceOnUse">
<stop stop-color="#6349A4"/>
<stop offset="1" stop-color="#604999"/>
</linearGradient>
</defs>
</svg>
