<svg width="1371" height="446" viewBox="0 0 1371 446" fill="none" xmlns="http://www.w3.org/2000/svg">
<path fill-rule="evenodd" clip-rule="evenodd" d="M679.052 271.632H756.723V123.79L789.148 252.756C790.115 257.355 793.261 267.031 793.261 271.632H861.738C861.496 267.277 859.075 259.533 857.867 254.934C856.414 248.644 855.204 243.806 853.512 237.755L828.105 136.131C822.298 113.142 816.733 91.3671 811.165 68.6205L796.166 9.09682C795.439 5.95052 795.68 1.83765 792.534 1.83765H679.052V271.632Z" fill="white"/>
<path fill-rule="evenodd" clip-rule="evenodd" d="M1215.98 271.632H1291.96C1295.1 271.632 1296.31 262.92 1298.25 256.63C1299.94 250.338 1301.39 245.256 1303.09 239.207C1306.23 228.077 1309.38 216.946 1312.76 205.332C1316.15 193.477 1370.35 7.16123 1370.35 1.83765H1295.34C1291.96 1.83765 1290.74 12.4848 1289.05 18.775L1265.34 114.353C1263.65 120.643 1256.15 148.711 1255.9 152.824H1254.21C1254.21 148.711 1246.95 121.371 1245.26 115.078C1241.87 102.012 1238.72 89.1874 1235.58 76.8486L1221.3 19.5024C1219.85 13.2098 1218.4 1.83765 1215.01 1.83765H1140C1140 6.43626 1142.9 14.4204 1144.11 18.775L1158.63 69.3455C1161.78 80.2343 1215.74 266.308 1215.98 271.632Z" fill="white"/>
<path fill-rule="evenodd" clip-rule="evenodd" d="M840.202 124.756C840.202 128.63 842.865 137.097 844.073 141.452C845.526 147.503 846.736 152.341 848.189 158.633L873.596 259.532C876.498 256.145 890.048 196.621 891.258 192.75C892.711 186.218 906.743 127.661 908.679 124.756C908.679 174.602 909.406 222.028 909.406 271.632H987.078V4.49827C987.078 2.32098 986.592 1.83765 984.657 1.83765H872.627C869.481 1.83765 868.997 8.61352 867.303 15.387C866.093 20.2273 864.643 26.0342 863.432 31.1162C860.769 41.7609 858.35 51.9248 855.69 62.3303C853.027 72.7334 850.608 82.8972 847.947 93.0586L840.202 124.756Z" fill="white"/>
<path fill-rule="evenodd" clip-rule="evenodd" d="M41.2679 150.355C44.2611 146.029 89.8573 126.058 100.507 120.401L130.795 106.089C170.068 86.4548 213.336 67.1513 252.938 47.5126C297.869 24.8856 320.169 39.526 363.767 61.4926L424.673 90.7784C430.33 93.4414 434.325 95.1066 439.981 97.7696C445.307 100.433 449.298 102.761 454.957 105.424C467.272 111.082 542.821 146.029 546.149 150.355C543.154 154.348 517.859 164.997 509.54 168.991C496.892 175.314 484.578 180.975 471.598 187.629L395.716 223.241C396.383 230.562 428.664 275.161 430.995 284.145C422.01 284.145 419.348 282.815 413.024 279.817C394.718 271.83 364.765 254.192 350.787 250.199C333.149 245.208 334.146 264.176 288.883 264.176C277.901 264.176 270.909 261.513 262.59 257.523C259.595 256.19 257.597 255.525 254.271 254.192L56.2434 158.674C51.2524 156.678 43.9309 154.015 41.2679 150.355ZM9.3193 150.355V253.527H0V306.444H31.6185V253.527H21.2968V175.982C30.951 182.636 54.9155 192.953 68.8908 199.944C119.813 225.569 181.05 252.197 231.639 277.824C262.258 293.464 288.218 302.449 324.492 291.799C355.445 282.485 332.151 275.493 383.736 301.121C398.379 308.442 409.363 314.763 428.664 314.763C449.966 314.763 473.595 293.132 450.964 259.52C447.97 254.86 440.314 242.212 439.314 237.219C444.64 236.889 453.294 231.228 457.955 228.897L514.2 201.942C523.517 197.281 561.457 180.975 569.113 173.319C581.426 161.004 584.421 131.384 555.136 117.738L501.886 92.4437C457.285 69.8119 405.367 47.1799 360.436 24.5481C327.823 8.24244 320.834 4.57935 285.222 4.57935C256.601 4.57935 203.349 38.1957 173.728 50.1756C157.753 56.8343 78.2124 95.7718 66.5628 101.765L30.9509 119.069C23.9597 122.067 21.6341 124.06 16.3057 130.053C12.3124 134.381 9.3193 142.368 9.3193 150.355Z" fill="white"/>
<path fill-rule="evenodd" clip-rule="evenodd" d="M1046.12 209.204C1013.45 209.204 1011.52 203.155 1001.59 202.428L1001.84 270.665C1002.8 273.324 1004.26 272.601 1012.72 273.323C1054.83 276.958 1103.71 278.647 1132.5 242.837C1160.33 208.235 1156.21 159.117 1156.21 114.595C1156.21 109.03 1142.66 64.7492 1140.73 58.2149C1137.1 44.6655 1127.42 14.4204 1124.51 1.83765H1080.96C1076.6 2.0793 1077.57 3.04843 1077.57 7.64466V169.278C1077.57 178.717 1073.94 191.783 1069.59 197.104C1064.75 203.155 1056.52 209.204 1046.12 209.204Z" fill="white"/>
<path fill-rule="evenodd" clip-rule="evenodd" d="M65.8973 300.456C65.8973 331.739 77.8796 349.378 98.181 361.025C103.172 363.688 108.163 365.353 113.491 368.016L223.652 420.934C258.932 435.242 284.889 460.204 338.139 433.248C350.787 426.922 363.434 421.266 376.082 414.945L433.325 387.32C439.646 384.322 446.635 381.326 453.294 378C459.283 375.005 465.941 371.342 471.93 368.684C491.901 360.027 508.874 352.706 517.859 328.744C524.85 309.107 521.522 246.203 521.522 218.248C515.528 218.915 494.894 229.565 489.571 232.56C489.571 248.201 489.571 263.844 489.571 279.484C489.571 294.462 491.569 312.77 485.575 322.42C479.254 333.069 468.604 335.067 457.285 341.056C416.017 361.692 371.753 381.326 330.485 401.96C319.501 407.621 306.188 413.28 293.541 413.28C272.907 413.28 245.619 394.974 226.646 387.32L147.435 349.047C134.458 342.389 109.828 334.07 102.504 323.753C96.5157 314.764 98.5136 295.462 98.5136 280.487C98.5136 264.844 98.5136 249.199 98.5136 233.558C93.1876 229.897 72.2186 218.583 65.8973 218.248V300.456Z" fill="white"/>
<path fill-rule="evenodd" clip-rule="evenodd" d="M919.568 419.235C919.568 421.166 920.295 421.893 922.229 421.893H946.911V380.757H976.914V419.235C976.914 421.166 977.398 421.893 979.333 421.893H1004.26V316.876H976.914V356.074H946.911V316.876H919.568V419.235Z" fill="white"/>
<path fill-rule="evenodd" clip-rule="evenodd" d="M1074.18 384.145C1074.18 372.533 1072.25 350.997 1077.57 343.977C1082.41 337.685 1102.25 335.995 1102.25 355.354C1102.25 366.482 1104.19 387.049 1099.35 394.064C1094.03 401.807 1074.18 401.565 1074.18 384.145ZM1046.12 357.771C1046.12 376.641 1043.94 396.488 1055.55 410.516C1074.18 432.782 1130.56 429.875 1130.56 381.726C1130.56 358.012 1133.95 328.011 1105.88 317.603C1102.25 316.395 1092.58 314.218 1087.98 314.218C1062.81 314.945 1046.12 331.15 1046.12 357.771Z" fill="white"/>
<path fill-rule="evenodd" clip-rule="evenodd" d="M1213.32 398.666C1203.88 398.666 1198.07 394.311 1198.07 382.453C1198.07 358.013 1193.72 339.862 1213.32 339.862C1225.17 339.862 1226.14 350.509 1226.14 358.74C1226.14 368.66 1231.7 398.666 1213.32 398.666ZM1169.76 357.771C1169.76 377.13 1167.58 395.034 1179.44 410.277C1192.51 426.975 1226.38 428.186 1241.63 413.423C1254.93 400.843 1253.48 388.499 1254.21 374.952C1254.93 362.855 1254.21 368.66 1254.21 359.463C1254.69 304.779 1194.2 306.234 1177.5 330.67C1172.91 337.443 1169.76 346.643 1169.76 357.771Z" fill="white"/>
<path fill-rule="evenodd" clip-rule="evenodd" d="M736.156 390.196C736.156 403.743 714.379 399.876 706.153 396.242C701.313 394.065 698.411 391.165 694.298 388.5C692.118 390.438 679.052 405.439 679.052 407.377C679.052 410.763 691.151 417.051 694.298 418.266C709.541 424.071 712.443 423.582 727.689 423.582C745.593 423.582 764.224 410.516 764.224 392.854C764.224 376.89 762.289 367.452 744.868 360.19C739.303 357.771 733.979 356.802 726.962 355.835C718.008 354.625 711.477 354.144 711.477 346.643C711.477 334.785 730.591 339.381 736.881 341.8C740.511 343.008 743.899 345.916 747.287 346.643C749.464 344.947 752.127 339.862 754.063 337.204C757.207 333.089 759.87 330.67 760.111 326.315L751.158 321.48C742.205 316.876 728.172 313.491 718.008 314.946C703.976 316.637 690.666 320.264 684.859 336.235C679.535 350.27 683.65 366.002 696.716 374.225C713.896 385.114 736.156 378.099 736.156 390.196Z" fill="white"/>
<path fill-rule="evenodd" clip-rule="evenodd" d="M801.973 356.075C801.973 378.34 798.343 407.377 822.298 419.228C839.719 427.939 864.643 424.312 876.257 408.1C878.917 404.473 879.403 402.054 881.336 397.938L860.528 388.741C851.818 386.081 860.286 398.666 841.171 398.666C833.67 398.666 830.041 391.165 830.041 383.422V355.355C830.041 336.962 848.672 335.266 855.204 347.124C856.898 349.789 856.656 351.239 861.011 349.543C883.999 340.35 882.547 341.319 877.709 333.089C861.98 305.507 815.522 310.344 806.086 337.204C804.15 342.04 801.973 349.301 801.973 356.075Z" fill="white"/>
<path fill-rule="evenodd" clip-rule="evenodd" d="M1296.07 421.893H1367.94C1372.29 421.893 1370.35 412.213 1370.35 399.635C1370.35 397.697 1369.87 396.969 1367.94 396.969H1323.41V316.876H1296.07V421.893Z" fill="white"/>
<path d="M628.584 0H607.888V426.365H628.584V0Z" fill="white"/>
</svg>
